<?xml version="1.0" encoding="UTF-8" standalone="no"?>
<svg width="256px" height="256px" viewBox="0 0 256 256" version="1.1" xmlns="http://www.w3.org/2000/svg" xmlns:xlink="http://www.w3.org/1999/xlink" xmlns:sketch="http://www.bohemiancoding.com/sketch/ns">
    <!-- Generator: Sketch 3.3.1 (12002) - http://www.bohemiancoding.com/sketch -->
    <title>Slice 1</title>
    <desc>Created with Sketch.</desc>
    <defs></defs>
    <g id="Page-1" stroke="none" stroke-width="1" fill="none" fill-rule="evenodd" sketch:type="MSPage">
        <path d="M248,8 L237.842,8 C235.074,3.222 229.918,0 224,0 L48,0 C42.082,0 36.926,3.222 34.158,8 L24,8 C19.582,8 16,11.582 16,16 L16,32 L8,32 C3.582,32 0,35.582 0,40 L0,96 C0,100.034 3.004,103.438 7.008,103.938 L128,119.062 L128,144 C119.779,144 112.897,150.229 112.08,158.408 L104.08,238.408 C103.629,242.906 105.103,247.385 108.137,250.736 C111.171,254.087 115.479,256 120,256 L152,256 C156.52,256 160.83,254.088 163.863,250.736 C166.896,247.384 168.371,242.906 167.92,238.408 L159.92,158.408 C159.102,150.228 152.221,144 144,144 L144,112 C144,107.966 140.996,104.562 136.992,104.062 L16,88.938 L16,64 C16,68.418 19.582,72 24,72 L34.158,72 C36.926,76.778 42.082,80 48,80 L224,80 C229.918,80 235.074,76.778 237.842,72 L248,72 C252.418,72 256,68.418 256,64 L256,16 C256,11.582 252.418,8 248,8 L248,8 Z M152,240 L120,240 L128,160 L144,160 L152,240 L152,240 Z M24,64 L24,16 L32,16 L32,64 L24,64 L24,64 Z M48,64 L48,16 L224,16 L224,64 L48,64 L48,64 Z M248,64 L240,64 L240,16 L248,16 L248,64 L248,64 Z" id="Shape" fill="#000000" sketch:type="MSShapeGroup"></path>
    </g>
</svg>