<?xml version="1.0" encoding="UTF-8" standalone="no"?>
<svg width="256px" height="256px" viewBox="0 0 256 256" version="1.1" xmlns="http://www.w3.org/2000/svg" xmlns:xlink="http://www.w3.org/1999/xlink" xmlns:sketch="http://www.bohemiancoding.com/sketch/ns">
    <!-- Generator: Sketch 3.3.2 (12043) - http://www.bohemiancoding.com/sketch -->
    <title>Untitled 2</title>
    <desc>Created with Sketch.</desc>
    <defs></defs>
    <g id="Page-1" stroke="none" stroke-width="1" fill="none" fill-rule="evenodd" sketch:type="MSPage">
        <path d="M112,80 C76.654,80 48,108.653 48,144 C48,179.347 76.654,208 112,208 C147.346,208 176,179.347 176,144 C176,108.653 147.346,80 112,80 L112,80 Z M112,200 C81.122,200 56,174.878 56,144 C56,113.122 81.122,88 112,88 C142.878,88 168,113.122 168,144 C168,174.878 142.878,200 112,200 L112,200 Z M204,80 C192.972,80 184,88.972 184,100 C184,111.028 192.972,120 204,120 C215.028,120 224,111.028 224,100 C224,88.972 215.028,80 204,80 L204,80 Z M204,112 C197.372,112 192,106.628 192,100 C192,93.372 197.372,88 204,88 C210.628,88 216,93.372 216,100 C216,106.628 210.628,112 204,112 L204,112 Z M224,48 L192.028,48 C192.018,47.992 192.008,47.982 192,47.972 C191.982,30.338 177.634,16 160,16 L96,16 C78.365,16 64.016,30.34 64,47.972 C63.992,47.982 63.981,47.992 63.972,48 L32,48 C14.355,48 0,62.356 0,80 L0,208 C0,225.644 14.355,240 32,240 L224,240 C241.645,240 256,225.644 256,208 L256,80 C256,62.356 241.645,48 224,48 L224,48 Z M80,48 C80,39.2 87.2,32 96,32 L160,32 C168.8,32 176,39.2 176,48 L176,56 L80,56 L80,48 L80,48 Z M240,208 C240,216.8 232.8,224 224,224 L32,224 C23.2,224 16,216.8 16,208 L16,80 C16,71.2 23.2,64 32,64 L224,64 C232.8,64 240,71.2 240,80 L240,208 L240,208 Z" id="Shape" fill="#000000" sketch:type="MSShapeGroup"></path>
    </g>
</svg>