<?xml version="1.0" encoding="UTF-8" standalone="no"?>
<svg width="256px" height="256px" viewBox="0 0 256 256" version="1.1" xmlns="http://www.w3.org/2000/svg" xmlns:xlink="http://www.w3.org/1999/xlink">
    <!-- Generator: Sketch 3.7.2 (28276) - http://www.bohemiancoding.com/sketch -->
    <title>Shape</title>
    <desc>Created with Sketch.</desc>
    <defs></defs>
    <g id="Page-1" stroke="none" stroke-width="1" fill="none" fill-rule="evenodd">
        <path d="M84,199.178571 C72.972,199.178571 64,208.110518 64,219.089286 C64,230.068054 72.972,239 84,239 C95.028,239 104,230.068054 104,219.089286 C104,208.110518 95.028,199.178571 84,199.178571 L84,199.178571 Z M84,231.035714 C77.372,231.035714 72,225.687696 72,219.089286 C72,212.490875 77.372,207.142857 84,207.142857 C90.628,207.142857 96,212.490875 96,219.089286 C96,225.687696 90.628,231.035714 84,231.035714 L84,231.035714 Z M204,199.178571 C192.972,199.178571 184,208.110518 184,219.089286 C184,230.068054 192.972,239 204,239 C215.028,239 224,230.068054 224,219.089286 C224,208.110518 215.028,199.178571 204,199.178571 L204,199.178571 Z M204,231.035714 C197.372,231.035714 192,225.687696 192,219.089286 C192,212.490875 197.372,207.142857 204,207.142857 C210.628,207.142857 216,212.490875 216,219.089286 C216,225.687696 210.628,231.035714 204,231.035714 L204,231.035714 Z M254.134,34.7797857 C252.614,32.9728884 250.368,31.9285714 248,31.9285714 L49.759,31.9285714 L47.845,22.4022902 C47.097,18.6799821 43.814,16 40,16 L8,16 C3.582,16 0,19.5660089 0,23.9642857 C0,28.3625625 3.582,31.9285714 8,31.9285714 L33.441,31.9285714 L64.155,184.811996 C64.903,188.534304 68.186,191.214286 72,191.214286 L216,191.214286 C220.418,191.214286 224,187.648277 224,183.25 C224,178.851723 220.418,175.285714 216,175.285714 L78.559,175.285714 L75.359,159.357143 L228,159.357143 C231.876,159.357143 235.194,156.591545 235.875,152.79258 L255.875,41.2925804 C256.292,38.9719866 255.654,36.5876786 254.134,34.7797857 L254.134,34.7797857 Z M104,143.428571 L72.158,143.428571 L62.558,95.6428571 L104,95.6428571 L104,143.428571 L104,143.428571 Z M104,87.6785714 L60.958,87.6785714 L52.958,47.8571429 L104,47.8571429 L104,87.6785714 L104,87.6785714 Z M176,143.428571 L112,143.428571 L112,95.6428571 L176,95.6428571 L176,143.428571 L176,143.428571 Z M176,87.6785714 L112,87.6785714 L112,47.8571429 L176,47.8571429 L176,87.6785714 L176,87.6785714 Z M221.302,143.428571 L184,143.428571 L184,95.6428571 L229.874,95.6428571 L221.302,143.428571 L221.302,143.428571 Z M231.302,87.6785714 L184,87.6785714 L184,47.8571429 L238.445,47.8571429 L231.302,87.6785714 L231.302,87.6785714 Z" id="Shape" fill="#000000"></path>
    </g>
</svg>