<?xml version="1.0" encoding="UTF-8" standalone="no"?>
<svg width="256px" height="192px" viewBox="0 0 256 192" version="1.1" xmlns="http://www.w3.org/2000/svg" xmlns:xlink="http://www.w3.org/1999/xlink" xmlns:sketch="http://www.bohemiancoding.com/sketch/ns">
    <!-- Generator: Sketch 3.3.1 (12002) - http://www.bohemiancoding.com/sketch -->
    <title>Slice 1</title>
    <desc>Created with Sketch.</desc>
    <defs></defs>
    <g id="Page-1" stroke="none" stroke-width="1" fill="none" fill-rule="evenodd" sketch:type="MSPage">
        <path d="M248,192 L8,192 C3.582,192 0,188.418 0,184 L0,8 C0,3.582 3.582,0 8,0 C12.418,0 16,3.582 16,8 L16,176 L248,176 C252.418,176 256,179.582 256,184 C256,188.418 252.418,192 248,192 L248,192 L248,192 Z M48,152 C51.133,152 54.107,150.147 55.387,147.075 L89.429,65.377 L121.217,116.239 C122.752,118.692 125.487,120.127 128.381,119.989 C131.272,119.852 133.863,118.166 135.156,115.577 L170.73,44.429 L203.001,70.247 C204.718,71.62 206.927,72.226 209.099,71.923 C211.277,71.622 213.233,70.437 214.509,68.65 L254.509,12.65 C257.077,9.056 256.244,4.06 252.65,1.492 C249.052,-1.076 244.057,-0.244 241.49,3.351 L206.401,52.476 L172.998,25.753 C171.112,24.243 168.644,23.668 166.285,24.187 C163.926,24.705 161.926,26.262 160.846,28.422 L127.226,95.663 L94.786,43.76 C93.2,41.223 90.337,39.786 87.348,40.027 C84.366,40.272 81.77,42.162 80.618,44.923 L40.619,140.921 C38.919,145 40.848,149.684 44.927,151.383 C45.932,151.802 46.975,152 48,152 L48,152 L48,152 Z" id="Shape" fill="#000000" sketch:type="MSShapeGroup"></path>
    </g>
</svg>