<?xml version="1.0" encoding="UTF-8" standalone="no"?>
<svg width="256px" height="256px" viewBox="0 0 256 256" version="1.1" xmlns="http://www.w3.org/2000/svg" xmlns:xlink="http://www.w3.org/1999/xlink" xmlns:sketch="http://www.bohemiancoding.com/sketch/ns">
    <!-- Generator: Sketch 3.3.2 (12043) - http://www.bohemiancoding.com/sketch -->
    <title>Untitled 3</title>
    <desc>Created with Sketch.</desc>
    <defs></defs>
    <g id="Page-1" stroke="none" stroke-width="1" fill="none" fill-rule="evenodd" sketch:type="MSPage">
        <path d="M127.999,88 C150.091,88 167.999,105.908 167.999,128 C167.999,150.092 150.091,168 127.999,168 C105.907,168 87.999,150.092 87.999,128 C87.999,105.908 105.907,88 127.999,88 L127.999,88 Z M127.999,0 C123.411,0 118.741,0.253 114.116,0.753 C107.449,1.473 101.938,6.274 100.311,12.78 L93.948,38.238 C92.148,38.923 90.37,39.661 88.612,40.454 L66.11,26.953 C63.565,25.426 60.717,24.673 57.88,24.673 C54.313,24.673 50.763,25.864 47.853,28.204 C40.627,34.015 34.013,40.626 28.203,47.854 C24.004,53.077 23.504,60.365 26.953,66.112 L40.453,88.613 C39.66,90.371 38.922,92.15 38.238,93.949 L12.779,100.313 C6.274,101.94 1.472,107.451 0.752,114.118 C0.252,118.743 9.09494702e-13,123.413 9.09494702e-13,128.001 C9.09494702e-13,132.589 0.252,137.259 0.752,141.884 C1.473,148.551 6.274,154.062 12.779,155.689 L38.238,162.053 C38.922,163.851 39.66,165.631 40.453,167.387 L26.953,189.888 C23.504,195.635 24.004,202.921 28.201,208.143 C34.012,215.372 40.625,221.985 47.853,227.797 C50.763,230.136 54.314,231.327 57.88,231.327 C60.718,231.327 63.566,230.574 66.11,229.047 L88.61,215.546 C90.368,216.339 92.147,217.077 93.946,217.762 L100.311,243.221 C101.938,249.726 107.449,254.528 114.116,255.247 C118.739,255.747 123.411,256 127.999,256 C132.587,256 137.258,255.747 141.882,255.247 C148.55,254.527 154.061,249.726 155.687,243.22 L162.052,217.762 C163.851,217.078 165.63,216.34 167.388,215.547 L189.889,229.047 C192.435,230.574 195.283,231.327 198.118,231.327 C201.686,231.327 205.236,230.136 208.145,227.796 C215.374,221.985 221.985,215.374 227.795,208.147 C231.994,202.923 232.494,195.636 229.045,189.889 L215.545,167.389 C216.338,165.631 217.076,163.852 217.76,162.052 L243.219,155.688 C249.725,154.062 254.526,148.55 255.246,141.883 C255.746,137.258 255.998,132.588 255.998,128 C255.998,123.411 255.746,118.74 255.246,114.117 C254.525,107.45 249.725,101.94 243.219,100.313 L217.76,93.948 C217.076,92.148 216.337,90.369 215.545,88.611 L229.045,66.111 C232.492,60.364 231.994,53.077 227.795,47.854 C221.987,40.629 215.377,34.018 208.147,28.204 C205.237,25.864 201.686,24.673 198.118,24.673 C195.282,24.673 192.434,25.426 189.889,26.953 L167.386,40.454 C165.629,39.661 163.85,38.923 162.051,38.239 L155.686,12.781 C154.06,6.275 148.549,1.474 141.881,0.754 C137.258,0.253 132.587,0 127.999,0 Z" id="Shape" fill="#000000" sketch:type="MSShapeGroup"></path>
    </g>
</svg>