<?xml version="1.0" encoding="UTF-8" standalone="no"?>
<svg width="128px" height="129px" viewBox="0 0 128 129" version="1.1" xmlns="http://www.w3.org/2000/svg" xmlns:xlink="http://www.w3.org/1999/xlink" xmlns:sketch="http://www.bohemiancoding.com/sketch/ns">
    <!-- Generator: Sketch 3.3.1 (12002) - http://www.bohemiancoding.com/sketch -->
    <title>Untitled 3</title>
    <desc>Created with Sketch.</desc>
    <defs></defs>
    <g id="Page-1" stroke="none" stroke-width="1" fill="none" fill-rule="evenodd" sketch:type="MSPage">
        <path d="M86.62775,64.00025 L123.31375,27.31425 C129.56175,21.06525 129.56175,10.93425 123.31375,4.68525 C117.06475,-1.56175 106.93475,-1.56175 100.68675,4.68525 L64.00075,41.37225 L27.31375,4.68525 C21.06475,-1.56175 10.93475,-1.56175 4.68675,4.68525 C-1.56225,10.93425 -1.56225,21.06525 4.68675,27.31425 L41.37275,64.00025 L4.68675,100.68625 C-1.56225,106.93525 -1.56225,117.06625 4.68675,123.31525 C7.81175,126.43925 11.90575,128.00125 16.00075,128.00125 C20.09575,128.00125 24.18975,126.43925 27.31375,123.31525 L64.00075,86.62825 L100.68675,123.31525 C103.81175,126.43925 107.90575,128.00125 112.00075,128.00125 C116.09575,128.00125 120.18975,126.43925 123.31375,123.31525 C129.56175,117.06625 129.56175,106.93525 123.31375,100.68625 L86.62775,64.00025 L86.62775,64.00025 Z" id="Path" fill="#000000" sketch:type="MSShapeGroup"></path>
    </g>
</svg>