<?xml version="1.0" encoding="UTF-8" standalone="no"?>
<svg width="256px" height="256px" viewBox="0 0 256 256" version="1.1" xmlns="http://www.w3.org/2000/svg" xmlns:xlink="http://www.w3.org/1999/xlink">
    <!-- Generator: Sketch 3.7.2 (28276) - http://www.bohemiancoding.com/sketch -->
    <title>Shape</title>
    <desc>Created with Sketch.</desc>
    <defs></defs>
    <g id="Page-1" stroke="none" stroke-width="1" fill="none" fill-rule="evenodd">
        <path d="M128.001,28 C150.093,28 168.001,45.908 168.001,68 L168.001,100 C168.001,113.086 136.001,156 136.001,156 L135.779,156.222 C178.382,158.556 215.914,179.929 240.001,211.988 L240.001,228 L16.001,228 L16.001,211.986 C40.088,179.928 77.62,158.555 120.223,156.221 L120.001,156 C120.001,156 88.001,113.086 88.001,100 L88.001,68 C88.001,45.908 105.909,28 128.001,28 L128.001,28 Z M128.001,12 C97.123,12 72.001,37.122 72.001,68 L72.001,100 C72.001,106.381 74.207,116.312 90.567,141.599 C91.121,142.454 91.672,143.3 92.222,144.136 C56.94,152.412 25.419,172.815 3.208,202.375 C1.126,205.146 0,208.52 0,211.986 L0,228 C0,236.836 7.164,244 16,244 L240,244 C248.836,244 256,236.836 256,228 L256,211.987 C256,208.52 254.874,205.148 252.792,202.376 C230.581,172.815 199.06,152.412 163.778,144.135 C164.328,143.299 164.88,142.453 165.433,141.598 C181.795,116.312 184.001,106.381 184.001,100 L184.001,68 C184.001,37.122 158.879,12 128.001,12 L128.001,12 L128.001,12 Z" id="Shape" fill="#000000"></path>
    </g>
</svg>