<?xml version="1.0" encoding="UTF-8"?>
<svg width="256px" height="256px" viewBox="0 0 256 256" version="1.1" xmlns="http://www.w3.org/2000/svg" xmlns:xlink="http://www.w3.org/1999/xlink">
    <!-- Generator: Sketch 48.2 (47327) - http://www.bohemiancoding.com/sketch -->
    <title>Shape</title>
    <desc>Created with Sketch.</desc>
    <defs></defs>
    <g id="Page-1" stroke="none" stroke-width="1" fill="none" fill-rule="evenodd">
        <path d="M256,16 L256,96 C256,104.836 248.837,112 240,112 C231.163,112 224,104.836 224,96 L224,54.628 L139.313,139.314 C136.189,142.438 132.093,144.001 128,144.001 C123.905,144.001 119.811,142.439 116.687,139.314 C110.438,133.066 110.438,122.935 116.687,116.687 L201.374,32 L160,32 C151.163,32 144,24.836 144,16 C144,7.164 151.163,0 160,0 L240,0 C248.837,0 256,7.164 256,16 Z M208,256 C216.837,256 224,248.836 224,240 L224,160 C224,151.164 216.837,144 208,144 C199.163,144 192,151.164 192,160 L192,224 L32,224 L32,64 L96,64 C104.837,64 112,56.836 112,48 C112,39.164 104.837,32 96,32 L16,32 C7.163,32 0,39.164 0,48 L0,240 C0,248.836 7.163,256 16,256 L208,256 Z" id="Shape" fill="#797C7C" fill-rule="nonzero"></path>
    </g>
</svg>