<?xml version="1.0" encoding="UTF-8" standalone="no"?>
<svg width="256px" height="256px" viewBox="0 0 256 256" version="1.1" xmlns="http://www.w3.org/2000/svg" xmlns:xlink="http://www.w3.org/1999/xlink" xmlns:sketch="http://www.bohemiancoding.com/sketch/ns">
    <!-- Generator: Sketch 3.3.2 (12043) - http://www.bohemiancoding.com/sketch -->
    <title>Untitled 2</title>
    <desc>Created with Sketch.</desc>
    <defs></defs>
    <g id="Page-1" stroke="none" stroke-width="1" fill="none" fill-rule="evenodd" sketch:type="MSPage">
        <path d="M224,0 L32,0 C14.355,0 0,14.356 0,32 L0,224 C0,241.644 14.355,256 32,256 L224,256 C241.645,256 256,241.644 256,224 L256,32 C256,14.356 241.645,0 224,0 L224,0 Z M240,224 C240,232.8 232.8,240 224,240 L32,240 C23.2,240 16,232.8 16,224 L16,32 C16,23.2 23.2,16 32,16 L224,16 C232.8,16 240,23.2 240,32 L240,224 L240,224 Z M224,147.999 L224,40 C224,35.582 220.418,32 216,32 L40,32 C35.582,32 32,35.582 32,40 L32,184 C32,188.418 35.582,192 40,192 L216,192 C220.418,192 224,188.418 224,184 L224,148.001 L224,147.999 L224,147.999 Z M216,40 L216,138.343 L186.829,109.172 C185.387,107.731 183.094,107.603 181.501,108.877 L144.297,138.64 L98.829,93.172 C97.345,91.688 94.965,91.603 93.381,92.978 L40,139.24 L40,40 L216,40 L216,40 Z M40,184 L40,149.827 L95.805,101.462 L141.171,146.828 C142.612,148.269 144.906,148.396 146.499,147.123 L183.703,117.36 L216,149.657 L216,184 L40,184 L40,184 Z M172,96 C183.028,96 192,87.028 192,76 C192,64.972 183.028,56 172,56 C160.972,56 152,64.972 152,76 C152,87.028 160.972,96 172,96 L172,96 Z M172,64 C178.628,64 184,69.372 184,76 C184,82.628 178.628,88 172,88 C165.372,88 160,82.628 160,76 C160,69.372 165.372,64 172,64 L172,64 Z" id="Shape" fill="#000000" sketch:type="MSShapeGroup"></path>
    </g>
</svg>