<?xml version="1.0" encoding="UTF-8" standalone="no"?>
<svg width="152px" height="152px" viewBox="0 0 152 152" version="1.1" xmlns="http://www.w3.org/2000/svg" xmlns:xlink="http://www.w3.org/1999/xlink">
    <!-- Generator: Sketch 39.1 (31720) - http://www.bohemiancoding.com/sketch -->
    <title>Group</title>
    <desc>Created with Sketch.</desc>
    <defs></defs>
    <g id="Page-1" stroke="none" stroke-width="1" fill="none" fill-rule="evenodd">
        <g id="Group" transform="translate(40.000000, 0.000000)" fill="#000000">
            <path d="M48.0003796,48 C61.2563796,48 72.0003796,37.255 72.0003796,24 C72.0003796,10.745 61.2563796,0 48.0003796,0 C34.7433796,0 24.0003796,10.745 24.0003796,24 C24.0003796,37.255 34.7433796,48 48.0003796,48 L48.0003796,48 Z" id="Path"></path>
            <path d="M63.5023796,125.225 C62.3183796,122.026 59.2793796,119.999 56.0023796,119.999 C55.3583796,119.999 54.7083796,120.077 54.0583796,120.239 L43.7893796,122.806 L55.5183796,75.882 C57.6603796,67.31 52.4503796,58.624 43.8783796,56.481 C42.7393796,56.197 41.6043796,56.063 40.4773796,56.033 C40.3173796,56.023 40.1593796,56 39.9993796,56 C38.7763796,56 37.5523796,56.28 36.4223796,56.845 L4.4243796,72.845 C0.774379601,74.67 -0.917620399,78.949 0.498379601,82.776 C1.6823796,85.976 4.7193796,88.003 7.9983796,88.003 C8.6413796,88.003 9.2923796,87.925 9.9423796,87.763 L20.2113796,85.195 L8.4833796,132.119 C6.3403796,140.691 11.5513796,149.378 20.1233796,151.52 C21.4163796,151.845 22.7133796,152.001 23.9893796,152.001 L24.0023796,152.001 C25.2243796,152.001 26.4503796,151.722 27.5783796,151.156 L59.5763796,135.156 C63.2263796,133.331 64.9183796,129.052 63.5023796,125.225 L63.5023796,125.225 Z" id="Path"></path>
        </g>
    </g>
</svg>