<?xml version="1.0" encoding="UTF-8" standalone="no"?>
<svg width="256px" height="160px" viewBox="0 0 256 160" version="1.1" xmlns="http://www.w3.org/2000/svg" xmlns:xlink="http://www.w3.org/1999/xlink" xmlns:sketch="http://www.bohemiancoding.com/sketch/ns">
    <!-- Generator: Sketch 3.3.1 (12002) - http://www.bohemiancoding.com/sketch -->
    <title>Slice 1</title>
    <desc>Created with Sketch.</desc>
    <defs></defs>
    <g id="Page-1" stroke="none" stroke-width="1" fill="none" fill-rule="evenodd" sketch:type="MSPage">
        <path d="M224,16 C232.8,16 240,23.2 240,32 L240,128 C240,136.8 232.8,144 224,144 L32,144 C23.2,144 16,136.8 16,128 L16,32 C16,23.2 23.2,16 32,16 L224,16 L224,16 Z M224,0 L32,0 C14.355,0 0,14.355 0,32 L0,128 C0,145.645 14.355,160 32,160 L224,160 C241.645,160 256,145.645 256,128 L256,32 C256,14.355 241.645,0 224,0 L224,0 L224,0 Z M128,95.999 C129.318,95.999 130.637,95.673 131.831,95.022 L219.829,47.023 C223.708,44.908 225.137,40.048 223.021,36.169 C220.906,32.291 216.045,30.861 212.167,32.977 L128,78.887 L43.832,32.978 C39.953,30.862 35.094,32.292 32.978,36.17 C30.863,40.049 32.291,44.908 36.17,47.024 L124.168,95.023 C125.363,95.673 126.682,95.999 128,95.999 L128,95.999 L128,95.999 Z" id="Shape" fill="#000000" sketch:type="MSShapeGroup"></path>
    </g>
</svg>