<?xml version="1.0" encoding="UTF-8" standalone="no"?>
<svg width="192px" height="256px" viewBox="0 0 192 256" version="1.1" xmlns="http://www.w3.org/2000/svg" xmlns:xlink="http://www.w3.org/1999/xlink" xmlns:sketch="http://www.bohemiancoding.com/sketch/ns">
    <!-- Generator: Sketch 3.3.1 (12002) - http://www.bohemiancoding.com/sketch -->
    <title>Untitled 2</title>
    <desc>Created with Sketch.</desc>
    <defs></defs>
    <g id="Page-1" stroke="none" stroke-width="1" fill="none" fill-rule="evenodd" sketch:type="MSPage">
        <path d="M160,16 C168.8,16 176,23.2 176,32 L176,224 C176,232.8 168.8,240 160,240 L32,240 C23.2,240 16,232.8 16,224 L16,32 C16,23.2 23.2,16 32,16 L160,16 L160,16 Z M160,0 L32,0 C14.355,0 0,14.356 0,32 L0,224 C0,241.644 14.355,256 32,256 L160,256 C177.645,256 192,241.644 192,224 L192,32 C192,14.356 177.645,0 160,0 L160,0 L160,0 Z M96,96 C131.346,96 160,124.654 160,160 C160,195.346 131.346,224 96,224 C60.654,224 32,195.346 32,160 C32,124.654 60.654,96 96,96 L96,96 Z M96,88 C56.299,88 24,120.299 24,160 C24,199.701 56.299,232 96,232 C135.701,232 168,199.701 168,160 C168,120.299 135.701,88 96,88 L96,88 L96,88 Z M136,40 C144.836,40 152,47.163 152,56 C152,64.837 144.836,72 136,72 C127.164,72 120,64.837 120,56 C120,47.163 127.164,40 136,40 L136,40 Z M136,32 C122.767,32 112,42.767 112,56 C112,69.234 122.767,80 136,80 C149.233,80 160,69.234 160,56 C160,42.767 149.233,32 136,32 L136,32 L136,32 Z M96,136 C109.254,136 120,146.744 120,160 C120,173.256 109.254,184 96,184 C82.746,184 72,173.256 72,160 C72,146.744 82.746,136 96,136 L96,136 Z M96,128 C78.355,128 64,142.356 64,160 C64,177.644 78.355,192 96,192 C113.645,192 128,177.644 128,160 C128,142.356 113.645,128 96,128 L96,128 L96,128 Z" id="Shape" fill="#000000" sketch:type="MSShapeGroup"></path>
    </g>
</svg>