<?xml version="1.0" encoding="UTF-8" standalone="no"?>
<svg width="256px" height="256px" viewBox="0 0 256 256" version="1.1" xmlns="http://www.w3.org/2000/svg" xmlns:xlink="http://www.w3.org/1999/xlink">
    <!-- Generator: Sketch 3.7.2 (28276) - http://www.bohemiancoding.com/sketch -->
    <title>Shape</title>
    <desc>Created with Sketch.</desc>
    <defs></defs>
    <g id="Page-1" stroke="none" stroke-width="1" fill="none" fill-rule="evenodd">
        <path d="M248,84 L240,84 L240,36 C240,30.65 237.326,25.654 232.875,22.688 C230.209,20.91 227.113,20 223.998,20 C221.916,20 219.825,20.406 217.846,21.23 L124.8,60 L16,60 C7.164,60 0,67.164 0,76 L0,140 C0,148.836 7.164,156 16,156 L32.013,156 C32.013,157.295 32.157,158.598 32.478,159.881 L48.478,223.881 C50.257,231.003 56.659,236 64,236 L96,236 C100.926,236 105.579,233.73 108.611,229.847 C111.642,225.963 112.716,220.9 111.522,216.119 L96.492,156 L124.8,156 L217.846,194.77 C219.824,195.594 221.916,196 223.998,196 C227.113,196 230.207,195.092 232.875,193.312 C237.326,190.345 240,185.349 240,180 L240,132 L248,132 C252.418,132 256,128.418 256,124 L256,92 C256,87.582 252.418,84 248,84 L248,84 Z M16,76 L64,76 L64,140 L16,140 L16,76 L16,76 Z M96,220 L64,220 L48,156 L80,156 L96,220 L96,220 Z M72,140 L72,76 L128,76 L200,46 L200,170 L128,140 L72,140 L72,140 Z M224,180 L208,173.334 L208,42.666 L224,36 L224,180 L224,180 Z M248,124 L240,124 L240,92 L248,92 L248,124 L248,124 Z" id="Shape" fill="#000000"></path>
    </g>
</svg>