<?xml version="1.0" encoding="UTF-8" standalone="no"?>
<svg width="256px" height="256px" viewBox="0 0 256 256" version="1.1" xmlns="http://www.w3.org/2000/svg" xmlns:xlink="http://www.w3.org/1999/xlink" xmlns:sketch="http://www.bohemiancoding.com/sketch/ns">
    <!-- Generator: Sketch 3.3.1 (12002) - http://www.bohemiancoding.com/sketch -->
    <title>Slice 1</title>
    <desc>Created with Sketch.</desc>
    <defs></defs>
    <g id="Page-1" stroke="none" stroke-width="1" fill="none" fill-rule="evenodd" sketch:type="MSPage">
        <path d="M128,256 C93.81,256 61.666,242.686 37.49,218.509 C13.315,194.334 0,162.19 0,128 C0,93.81 13.315,61.668 37.49,37.491 C43.739,31.242 53.869,31.242 60.118,37.491 C66.367,43.739 66.367,53.87 60.118,60.118 C41.985,78.25 32,102.357 32,128 C32,153.643 41.985,177.75 60.118,195.882 C78.25,214.014 102.357,224 128,224 C153.643,224 177.75,214.014 195.882,195.882 C214.015,177.75 224,153.643 224,128 C224,102.357 214.015,78.25 195.882,60.118 C189.633,53.87 189.633,43.739 195.882,37.491 C202.13,31.243 212.261,31.243 218.51,37.491 C242.686,61.668 256,93.809 256,128 C256,162.191 242.685,194.334 218.51,218.509 C194.334,242.686 162.19,256 128,256 L128,256 L128,256 Z M128,144 C136.837,144 144,136.837 144,128 L144,16 C144,7.163 136.837,0 128,0 C119.163,0 112,7.163 112,16 L112,128 C112,136.837 119.163,144 128,144 L128,144 L128,144 Z" id="Shape" fill="#000000" sketch:type="MSShapeGroup"></path>
    </g>
</svg>