<?xml version="1.0" encoding="UTF-8" standalone="no"?>
<svg width="257px" height="145px" viewBox="0 0 257 145" version="1.1" xmlns="http://www.w3.org/2000/svg" xmlns:xlink="http://www.w3.org/1999/xlink" xmlns:sketch="http://www.bohemiancoding.com/sketch/ns">
    <!-- Generator: Sketch 3.3.1 (12002) - http://www.bohemiancoding.com/sketch -->
    <title>Slice 1</title>
    <desc>Created with Sketch.</desc>
    <defs></defs>
    <g id="Page-1" stroke="none" stroke-width="1" fill="none" fill-rule="evenodd" sketch:type="MSPage">
        <path d="M128.00088,100 C108.14988,100 92.0008804,83.851 92.0008804,64 C92.0008804,44.149 108.14988,28 128.00088,28 C130.20988,28 132.00088,29.791 132.00088,32 C132.00088,34.209 130.20988,36 128.00088,36 C112.56088,36 100.00088,48.561 100.00088,64 C100.00088,79.439 112.56088,92 128.00088,92 C143.43988,92 156.00088,79.439 156.00088,64 C156.00088,61.791 157.79188,60 160.00088,60 C162.20988,60 164.00088,61.791 164.00088,64 C164.00088,83.851 147.85088,100 128.00088,100 L128.00088,100 L128.00088,100 Z M254.41888,67.226 C222.17288,23.875 177.27688,0 128.00088,0 C78.7248804,0 33.8278804,23.875 1.58188042,67.226 C-1.05511958,70.771 -0.32011958,75.782 3.22688042,78.419 C6.76988042,81.055 11.7838804,80.319 14.4188804,76.774 C25.3618804,62.063 37.8808804,49.834 51.5828804,40.295 C49.2218804,47.912 48.0008804,55.886 48.0008804,64 C48.0008804,108.112 83.8878804,144 128.00088,144 C172.11288,144 208.00088,108.112 208.00088,64 C208.00088,59.582 204.41888,56 200.00088,56 C195.58288,56 192.00088,59.582 192.00088,64 C192.00088,99.29 163.29088,128 128.00088,128 C92.7108804,128 64.0008804,99.29 64.0008804,64 C64.0008804,51.277 67.7288804,38.985 74.7808804,28.451 C75.0898804,27.989 75.5308804,27.37 75.9608804,26.711 C92.3258804,19.669 109.84388,16 128.00088,16 C172.09388,16 212.43088,37.583 241.58188,76.774 C243.15088,78.885 245.56388,80 248.00688,80 C249.66688,80 251.34088,79.485 252.77488,78.418 C256.32088,75.782 257.05588,70.771 254.41888,67.226 L254.41888,67.226 Z" id="Shape" fill="#000000" sketch:type="MSShapeGroup"></path>
    </g>
</svg>