<?xml version="1.0" encoding="UTF-8" standalone="no"?>
<svg width="256px" height="256px" viewBox="0 0 256 256" version="1.1" xmlns="http://www.w3.org/2000/svg" xmlns:xlink="http://www.w3.org/1999/xlink">
    <!-- Generator: Sketch 3.7.2 (28276) - http://www.bohemiancoding.com/sketch -->
    <title>Shape</title>
    <desc>Created with Sketch.</desc>
    <defs></defs>
    <g id="Page-1" stroke="none" stroke-width="1" fill="none" fill-rule="evenodd">
        <path d="M253.719,119.768 L205.719,39.768 C202.827,34.95 197.619,32 192,32 L64,32 C58.379,32 53.17,34.949 50.279,39.768 L2.279,119.768 C0.787,122.255 0,125.1 0,128 L0,208 C0,216.836 7.162,224 16,224 L240,224 C248.836,224 256,216.836 256,208 L256,128 C256,125.1 255.211,122.255 253.719,119.768 L253.719,119.768 Z M192,48 L237.6,124 L167.098,124 L159.588,101.471 C158.5,98.203 155.442,96 152,96 L132,96 L132,64 L144,64 C148.418,64 152,60.418 152,56 L152,48 L192,48 L192,48 Z M152,104 L160,128 L160,152 L96,152 L96,128 L104,104 L152,104 L152,104 Z M112,48 L144,48 L144,56 L112,56 L112,48 L112,48 Z M64,48 L104,48 L104,56 C104,60.418 107.58,64 112,64 L124,64 L124,96 L104,96 C100.556,96 97.498,98.203 96.41,101.471 L88.9,124 L18.398,124 L64,48 L64,48 Z M16,208 L16,132 L16,132 L88,132 L88,152 C88,156.418 91.58,160 96,160 L160,160 C164.418,160 168,156.418 168,152 L168,132 L240,132 L240,208 L16,208 L16,208 Z" id="Shape" fill="#000000"></path>
    </g>
</svg>