<?xml version="1.0" encoding="UTF-8" standalone="no"?>
<svg width="256px" height="224px" viewBox="0 0 256 224" version="1.1" xmlns="http://www.w3.org/2000/svg" xmlns:xlink="http://www.w3.org/1999/xlink" xmlns:sketch="http://www.bohemiancoding.com/sketch/ns">
    <!-- Generator: Sketch 3.3.1 (12002) - http://www.bohemiancoding.com/sketch -->
    <title>Slice 1</title>
    <desc>Created with Sketch.</desc>
    <defs></defs>
    <g id="Page-1" stroke="none" stroke-width="1" fill="none" fill-rule="evenodd" sketch:type="MSPage">
        <path d="M256,48.0019439 C256,52.2439439 254.314,56.3139439 251.313,59.3139439 L219.313,91.3129439 C216.251,94.3739439 212.16,95.9999439 207.996,95.9999439 C205.934,95.9999439 203.855,95.6019439 201.877,94.7809439 C195.898,92.3039439 192,86.4699439 192,79.9999439 L192,63.9999439 C171.377,63.9999439 159.469,84.8379439 142.311,119.154944 C134.036,135.703944 125.481,152.815944 114.293,166.242944 C100.049,183.333944 83.128,191.999944 64,191.999944 L16,191.999944 C7.163,191.999944 0,184.835944 0,175.999944 C0,167.163944 7.163,159.999944 16,159.999944 L64,159.999944 C84.623,159.999944 96.53,139.161944 113.689,104.844944 C121.963,88.2959439 130.517,71.1839439 141.709,57.7569439 C155.951,40.6659439 172.872,31.9999439 192,31.9999439 L192,15.9999439 C192,9.52894394 195.898,3.69494394 201.877,1.21894394 C207.858,-1.25905606 214.739,0.11194394 219.314,4.68694394 L251.314,36.6879439 C254.314,39.6879439 256,43.7569439 256,48.0019439 L256,48.0019439 Z M64,31.9999439 L16,31.9999439 C7.163,31.9999439 0,39.1639439 0,47.9999439 C0,56.8359439 7.163,63.9999439 16,63.9999439 L64,63.9999439 C79.133,63.9999439 89.574,75.2309439 100.841,94.7659439 C106.237,83.9909439 111.819,73.0739439 118.31,62.8789439 C117.006,61.1209439 115.668,59.4099439 114.293,57.7569439 C100.049,40.6659439 83.128,31.9999439 64,31.9999439 L64,31.9999439 Z M251.313,164.686944 L219.313,132.686944 C214.739,128.111944 207.858,126.742944 201.876,129.218944 C195.897,131.695944 191.999,137.529944 191.999,143.999944 L191.999,159.999944 C176.865,159.999944 166.425,148.768944 155.158,129.233944 C149.761,140.008944 144.18,150.925944 137.689,161.120944 C138.992,162.878944 140.329,164.589944 141.708,166.242944 C155.95,183.333944 172.871,191.999944 191.999,191.999944 L191.999,207.999944 C191.999,214.470944 195.897,220.304944 201.876,222.780944 C203.855,223.600944 205.933,223.999944 207.995,223.999944 C212.159,223.999944 216.251,222.373944 219.312,219.312944 L251.312,187.312944 C257.562,181.064944 257.562,170.934944 251.313,164.686944 L251.313,164.686944 Z" id="Shape" fill="#000000" sketch:type="MSShapeGroup"></path>
    </g>
</svg>