<?xml version="1.0" encoding="UTF-8" standalone="no"?>
<svg width="257px" height="257px" viewBox="0 0 257 257" version="1.1" xmlns="http://www.w3.org/2000/svg" xmlns:xlink="http://www.w3.org/1999/xlink" xmlns:sketch="http://www.bohemiancoding.com/sketch/ns">
    <!-- Generator: Sketch 3.3.1 (12002) - http://www.bohemiancoding.com/sketch -->
    <title>Untitled 2</title>
    <desc>Created with Sketch.</desc>
    <defs></defs>
    <g id="Page-1" stroke="none" stroke-width="1" fill="none" fill-rule="evenodd" sketch:type="MSPage">
        <g id="Group" sketch:type="MSLayerGroup" transform="translate(0.000000, 33.000000)" fill="#000000">
            <path d="M255.781,89.878 C253.305,83.899 247.47,80 241,80 L223.659,80 C216.017,34.655 176.482,0 129,0 C112.15,0 95.549,4.453 80.99,12.877 C73.342,17.302 70.728,27.089 75.152,34.738 C79.579,42.386 89.363,44.998 97.015,40.575 C106.71,34.965 117.769,32 128.999,32 C158.765,32 183.851,52.428 190.975,80 L177.001,80 C170.528,80 164.694,83.898 162.218,89.878 C159.741,95.856 161.111,102.738 165.685,107.314 L197.685,139.314 C200.81,142.438 204.905,144.001 208.999,144.001 C213.093,144.001 217.188,142.439 220.312,139.314 L252.312,107.314 C256.889,102.738 258.258,95.855 255.781,89.878 L255.781,89.878 Z" id="Shape" sketch:type="MSShapeGroup"></path>
            <path d="M160.982,151.425 C151.287,157.035 140.229,160 129.002,160 C99.234,160 74.147,139.572 67.023,112 L81,112 C87.469,112 93.305,108.102 95.781,102.123 C98.257,96.144 96.888,89.262 92.312,84.686 L60.312,52.686 C54.064,46.437 43.933,46.437 37.685,52.686 L5.685,84.686 C1.11,89.261 -0.26,96.144 2.216,102.123 C4.694,108.102 10.527,112 16.999,112 L34.34,112 C41.981,157.345 81.517,192 129.001,192 C145.848,192 162.448,187.547 177.009,179.124 C184.657,174.698 187.269,164.911 182.845,157.262 C178.42,149.612 168.633,147.002 160.982,151.425 L160.982,151.425 Z" id="Shape" sketch:type="MSShapeGroup"></path>
        </g>
    </g>
</svg>