<?xml version="1.0" encoding="UTF-8" standalone="no"?>
<svg width="256px" height="240px" viewBox="0 0 256 240" version="1.1" xmlns="http://www.w3.org/2000/svg" xmlns:xlink="http://www.w3.org/1999/xlink" xmlns:sketch="http://www.bohemiancoding.com/sketch/ns">
    <!-- Generator: Sketch 3.3.1 (12002) - http://www.bohemiancoding.com/sketch -->
    <title>Untitled 2</title>
    <desc>Created with Sketch.</desc>
    <defs></defs>
    <g id="Page-1" stroke="none" stroke-width="1" fill="none" fill-rule="evenodd" sketch:type="MSPage">
        <path d="M159.999832,67.998 C159.999832,74.624 154.626832,79.997 147.999832,79.997 C141.372832,79.997 135.999832,74.624 135.999832,67.998 C135.999832,61.371 141.372832,55.998 147.999832,55.998 C154.626832,55.998 159.999832,61.371 159.999832,67.998 L159.999832,67.998 Z M249.994832,100.492 L218.746832,125.49 C214.189832,141.449 206.821832,156.268 196.801832,169.605 C189.066832,179.906 179.916832,189.055 169.609832,196.799 C161.298832,203.042 152.421832,208.228 143.126832,212.361 L151.155832,228.419 C153.131832,232.372 151.529832,237.177 147.578832,239.152 C146.430832,239.727 145.208832,239.999 144.006832,239.999 C141.071832,239.999 138.246832,238.378 136.845832,235.575 L128.059832,218.003 C115.225832,221.948 101.777832,223.997 88.0008321,223.997 C83.4338321,223.997 78.9068321,223.747 74.4198321,223.306 L71.7628321,233.938 C70.8538321,237.573 67.5908321,240 64.0068321,240 C63.3638321,240 62.7118321,239.922 62.0608321,239.759 C57.7748321,238.688 55.1688321,234.344 56.2398321,230.058 L58.5558321,220.796 C39.7748321,216.665 22.0868321,208.583 6.39083212,196.792 C2.68483212,194.007 0.368832121,189.751 0.0408321211,185.127 C-0.287167879,180.503 1.40883212,175.964 4.68683212,172.685 C6.31983212,171.052 7.89083212,169.375 9.40683212,167.643 C7.78483212,166.281 6.21083212,164.838 4.68683212,163.314 C1.36083212,159.988 -0.334167879,155.367 0.0548321211,150.679 C0.442832121,145.993 2.87283212,141.713 6.70083212,138.98 C30.4318321,122.029 40.4718321,97.115 50.1818321,73.023 C57.4758321,54.919 64.3668321,37.822 76.5928321,24.187 C91.1898321,7.912 110.620832,0 135.999832,0 C155.222832,0 173.487832,6.09 188.818832,17.613 C201.910832,27.453 212.126832,40.978 218.047832,56.169 L248.231832,74.279 C252.722832,76.974 255.611832,81.697 255.962832,86.924 C256.314832,92.151 254.085832,97.218 249.994832,100.492 L249.994832,100.492 Z M188.234832,153.978 C181.503832,148.155 171.375832,148.296 163.895832,149.509 C138.174832,153.683 101.196832,177.37 81.3398321,207.792 C83.5458321,207.913 85.7628321,207.997 87.9988321,207.997 C115.014832,207.997 139.943832,199.07 159.998832,184.005 C169.088832,177.177 177.179832,169.088 184.006832,159.997 C185.478832,158.038 186.883832,156.028 188.234832,153.978 L188.234832,153.978 Z M203.650832,120.032 C196.160832,102.918 196.200832,80.739 203.773832,63.683 C193.799832,35.886 167.228832,15.998 135.999832,15.998 C55.9998321,15.998 79.9998321,106.284 15.9998321,151.997 C20.7168321,156.714 25.7828321,160.195 31.0418321,162.682 C60.0398321,173.149 94.1428321,156.197 105.171832,145.169 C106.733832,143.606 109.265832,143.606 110.827832,145.169 C112.389832,146.73 112.389832,149.264 110.827832,150.825 C103.366832,158.287 87.3488321,168.421 66.7638321,172.423 C61.9838321,173.351 56.5528321,174.013 50.7778321,174.013 C43.5068321,174.013 35.6858321,172.955 27.9198321,170.082 C24.3948321,174.881 20.4588321,179.539 16.0008321,183.996 C32.1358321,196.117 51.4338321,204.259 72.4278321,206.982 C81.1888321,192.49 94.2808321,178.318 110.013832,166.445 C127.496832,153.251 146.668832,144.199 162.616832,141.611 C175.055832,139.595 185.285832,141.496 192.456832,147.09 C197.232832,138.655 201.013832,129.581 203.650832,120.032 L203.650832,120.032 Z M239.999832,87.997 L209.860832,69.914 C204.924832,83.117 204.732832,99.142 209.301832,112.555 L239.999832,87.997 L239.999832,87.997 Z" id="Shape" fill="#000000" sketch:type="MSShapeGroup"></path>
    </g>
</svg>