<?xml version="1.0" encoding="UTF-8" standalone="no"?>
<svg width="256px" height="256px" viewBox="0 0 256 256" version="1.1" xmlns="http://www.w3.org/2000/svg" xmlns:xlink="http://www.w3.org/1999/xlink" xmlns:sketch="http://www.bohemiancoding.com/sketch/ns">
    <!-- Generator: Sketch 3.3.1 (12002) - http://www.bohemiancoding.com/sketch -->
    <title>Untitled 2</title>
    <desc>Created with Sketch.</desc>
    <defs></defs>
    <g id="Page-1" stroke="none" stroke-width="1" fill="none" fill-rule="evenodd" sketch:type="MSPage">
        <path d="M88,104 L88,216 L72,216 L72,104 L88,104 L88,104 Z M88,96 L72,96 C67.582,96 64,99.582 64,104 L64,216 C64,220.418 67.582,224 72,224 L88,224 C92.418,224 96,220.418 96,216 L96,104 C96,99.582 92.418,96 88,96 L88,96 L88,96 Z M184,104 L184,216 L168,216 L168,104 L184,104 L184,104 Z M184,96 L168,96 C163.582,96 160,99.582 160,104 L160,216 C160,220.418 163.582,224 168,224 L184,224 C188.418,224 192,220.418 192,216 L192,104 C192,99.582 188.418,96 184,96 L184,96 L184,96 Z M136,104 L136,216 L120,216 L120,104 L136,104 L136,104 Z M136,96 L120,96 C115.582,96 112,99.582 112,104 L112,216 C112,220.418 115.582,224 120,224 L136,224 C140.418,224 144,220.418 144,216 L144,104 C144,99.582 140.418,96 136,96 L136,96 L136,96 Z M224,32 L184,32 L184,24 C184,10.767 173.233,0 160,0 L96,0 C82.767,0 72,10.767 72,24 L72,32 L32,32 C23.164,32 16,39.164 16,48 L16,64 C16,72.836 23.164,80 32,80 L32,224 C32,241.645 46.355,256 64,256 L192,256 C209.645,256 224,241.645 224,224 L224,80 C232.836,80 240,72.836 240,64 L240,48 C240,39.164 232.836,32 224,32 L224,32 Z M88,24 C88,19.589 91.589,16 96,16 L160,16 C164.411,16 168,19.589 168,24 L168,32 L88,32 L88,24 L88,24 Z M208,224 C208,232.8 200.8,240 192,240 L64,240 C55.2,240 48,232.8 48,224 L48,72 L208,72 L208,224 L208,224 Z M224,64 L32,64 L32,48 L224,48 L224,64 L224,64 Z" id="Shape" fill="#000000" sketch:type="MSShapeGroup"></path>
    </g>
</svg>