<?xml version="1.0" encoding="UTF-8" standalone="no"?>
<svg width="256px" height="256px" viewBox="0 0 256 256" version="1.1" xmlns="http://www.w3.org/2000/svg" xmlns:xlink="http://www.w3.org/1999/xlink" xmlns:sketch="http://www.bohemiancoding.com/sketch/ns">
    <!-- Generator: Sketch 3.3.1 (12002) - http://www.bohemiancoding.com/sketch -->
    <title>Untitled 2</title>
    <desc>Created with Sketch.</desc>
    <defs></defs>
    <g id="Page-1" stroke="none" stroke-width="1" fill="none" fill-rule="evenodd" sketch:type="MSPage">
        <g id="upload-outline" sketch:type="MSLayerGroup" transform="translate(0.000000, 32.000000)" fill="#000000">
            <g id="Page-1" sketch:type="MSShapeGroup">
                <path d="M172,16 C200.717,16 224,39.279 224,68 C224,79.42 220.308,89.973 214.066,98.551 C229.216,104.244 240,118.86 240,136 C240,158.092 222.091,176 200,176 L48,176 C30.324,176 16,161.674 16,144 C16,126.324 30.324,112 48,112 C51.131,112 54.156,112.457 57.018,113.297 C51.383,106.404 48,97.598 48,88 C48,65.908 65.907,48 88,48 C101.177,48 112.864,54.375 120.15,64.207 C122.096,37.26 144.557,16 172,16 L172,16 L172,16 Z M172,0 C154.699,0 138.217,6.502 125.587,18.311 C119.728,23.788 114.948,30.167 111.391,37.154 C104.13,33.808 96.154,32.001 88,32.001 C57.12,32.001 32,57.122 32,88.001 C32,91.507 32.332,94.991 32.98,98.407 C13.846,104.725 0,122.776 0,144.001 C0,170.468 21.532,192.001 48,192.001 L200,192.001 C230.878,192.001 256,166.879 256,136.001 C256,124.382 252.469,113.234 245.791,103.763 C242.82,99.552 239.329,95.81 235.411,92.609 C238.436,84.833 240,76.529 240,68.002 C240,30.504 209.494,0 172,0 L172,0 L172,0 Z M165.655,114.343 L133.655,82.343 C130.532,79.219 125.466,79.219 122.342,82.343 L90.342,114.343 C87.217,117.467 87.217,122.532 90.342,125.656 C93.466,128.78 98.531,128.78 101.654,125.656 L119.998,107.312 L119.998,152 C119.998,156.418 123.58,160 127.998,160 C132.414,160 135.998,156.418 135.998,152 L135.998,107.312 L154.341,125.656 C155.903,127.218 157.951,128 160,128 C162.045,128 164.094,127.219 165.655,125.656 C168.78,122.532 168.78,117.467 165.655,114.343 L165.655,114.343 L165.655,114.343 Z" id="Shape"></path>
            </g>
        </g>
    </g>
</svg>